<?xml version="1.0" encoding="utf-8" ?><svg width="62" height="61" viewBox="0 0 62 61" fill="none" xmlns="http://www.w3.org/2000/svg">
<path d="M31.0002 59.506C47.1789 59.506 60.2943 46.3905 60.2943 30.2118C60.2943 14.0331 47.1789 0.917725 31.0002 0.917725C14.8215 0.917725 1.70605 14.0331 1.70605 30.2118C1.70605 46.3905 14.8215 59.506 31.0002 59.506Z" stroke="#FDC010" stroke-width="1.5" stroke-miterlimit="10"/>
<path d="M60.3738 30.2219C60.3738 46.4527 47.1479 59.3903 31.0878 59.3903C14.7916 59.3903 1.80176 46.2175 1.80176 30.2219C1.80176 13.9912 15.0278 1.05364 31.0878 1.05364C47.3841 0.818411 60.3738 13.9912 60.3738 30.2219Z" stroke="#FDC010" stroke-width="1.5" stroke-miterlimit="10"/>
<path d="M45.7303 30.2219C45.7303 46.4527 39.1174 59.3903 31.0874 59.3903C23.0573 59.3903 16.4443 46.2175 16.4443 30.2219C16.4443 13.9912 23.0573 1.05364 31.0874 1.05364C39.1174 0.818411 45.7303 13.9912 45.7303 30.2219Z" stroke="#FDC010" stroke-width="1.5" stroke-miterlimit="10"/>
<path d="M53.053 10.6978C47.621 13.7557 39.8271 15.6376 31.0886 15.6376C22.35 15.6376 14.5561 13.7557 9.12402 10.6978" stroke="#FDC010" stroke-width="1.5" stroke-miterlimit="10"/>
<path d="M9.12402 49.746C14.5561 46.688 22.35 44.8062 31.0886 44.8062C39.8271 44.8062 47.621 46.688 53.053 49.746" stroke="#FDC010" stroke-width="1.5" stroke-miterlimit="10"/>
<path d="M31.0879 0.818359V59.3903" stroke="#FDC010" stroke-width="1.5" stroke-miterlimit="10"/>
<path d="M37.9024 51.2878L37.8605 51.6434L38.1108 51.8996L42.7211 56.6175C39.1503 58.3054 35.1485 59.25 30.9416 59.25C27.0326 59.25 23.3199 58.4288 19.9496 56.9562C20.0109 56.9284 20.0628 56.9047 20.1049 56.8853C20.1463 56.8662 20.1782 56.8514 20.1999 56.8412L20.225 56.8295L20.2317 56.8263L20.2336 56.8254L20.2342 56.8251L20.2344 56.8251L20.2345 56.825L19.9135 56.1472L20.2346 56.825L20.4728 56.7121L20.588 56.4751L22.4437 52.6576L22.635 52.2641L22.3866 51.9039L20.6193 49.3413L20.5547 49.2477L20.4652 49.1774L18.4569 47.5994L18.8937 46.6528L21.0752 48.1732L21.4998 48.4691L21.9271 48.1773L21.5041 47.5579L21.9271 48.1773L21.9272 48.1772L21.9277 48.1769L21.9296 48.1756L21.9373 48.1703L21.9675 48.1497L22.0825 48.0713C22.1818 48.0037 22.324 47.9069 22.4955 47.7905C22.8386 47.5576 23.2986 47.2464 23.7665 46.9327C24.235 46.6185 24.7089 46.3035 25.0809 46.0623C25.2674 45.9414 25.4243 45.8416 25.5404 45.7706C25.5989 45.7348 25.642 45.7094 25.6709 45.6933C25.675 45.691 25.6785 45.689 25.6816 45.6874C25.7889 45.6432 25.8712 45.5841 25.9005 45.5631L25.9028 45.5614C25.9568 45.5227 26.0123 45.4781 26.0646 45.4341C26.1705 45.3452 26.2968 45.2307 26.431 45.105C26.701 44.8522 27.0309 44.5278 27.3475 44.2112C27.6651 43.8935 27.9739 43.5792 28.2029 43.3446C28.3175 43.2272 28.4124 43.1296 28.4787 43.0612L28.5556 42.9818L28.5759 42.9607L28.5812 42.9552L28.5826 42.9538L28.583 42.9534L28.5831 42.9533L28.0432 42.4327L28.5831 42.9533L28.7853 42.7436L28.793 42.4524L28.8813 39.0945L28.8915 38.7072L28.5816 38.4747L26.4608 36.8841L25.9232 36.481L25.4636 36.9712L23.0482 39.5476L19.8901 39.4103L19.2193 36.6601L22.1225 32.4298L22.3887 32.0418L22.1553 31.6333L20.7414 29.159L20.5933 28.8999L20.3077 28.8134L17.3916 27.9297L17.1058 27.8431L16.8387 27.9767L15.0714 28.8603L14.8426 28.9747L14.7314 29.2051L13.5762 31.5981L12.1434 32.6401L11.2854 32.2363L10.3929 30.3608C15.4284 24.7052 22.7724 21.144 30.9416 21.144C40.2896 21.144 48.5492 25.8086 53.5242 32.9297L53.6477 33.4375L54.3079 36.1517L53.0986 36.8236L51.8622 34.4194L51.5582 33.8283L50.9348 34.0591L48.739 34.8724L45.404 34.2888L44.9076 34.2019L44.6395 34.6287L42.2537 38.4285L41.6511 39.388L42.7698 39.5678L42.8888 38.8273L42.7699 39.5678L42.77 39.5679L42.7707 39.568L42.7734 39.5684L42.7841 39.5701L42.8257 39.5768L42.9834 39.6021L43.5482 39.6922C44.0166 39.7669 44.6442 39.8664 45.2802 39.9659C45.9159 40.0654 46.5616 40.1652 47.0656 40.2402C47.257 40.2687 47.4293 40.2938 47.5737 40.314C47.5749 40.3195 47.5761 40.3251 47.5773 40.3308C47.6419 40.6346 47.708 41.0545 47.7681 41.4921C47.8278 41.9257 47.8795 42.3609 47.9163 42.6888C47.9172 42.6968 47.9181 42.7048 47.919 42.7126L45.7019 43.7876L41.3515 42.951L40.8518 42.8549L40.5778 43.2837L38.5454 46.4649L38.4527 46.61L38.4326 46.7811L37.9024 51.2878ZM25.6958 45.6799C25.6957 45.68 25.6942 45.6808 25.6913 45.6822C25.6944 45.6806 25.6958 45.6799 25.6958 45.6799ZM47.4956 40.0187C47.4958 40.019 47.4963 40.0202 47.4971 40.0224C47.4959 40.0195 47.4954 40.0182 47.4956 40.0187ZM28.3236 32.1016L28.7013 32.1849L28.9881 31.9254L32.9215 28.3683L37.5225 27.0903L38.761 26.7462L37.8521 25.8373L35.4662 23.4514L35.2525 23.2378L34.9505 23.2319L30.4956 23.1445L24.9796 22.269L24.4875 22.1909L24.2248 22.6142L22.6342 25.1768L22.3887 25.5723L22.6342 25.9678L24.1271 28.3731L24.2907 30.6627L24.3306 31.2211L24.8773 31.3416L28.3236 32.1016Z" fill="white" stroke="#009258" stroke-width="1.5"/>
<path d="M21.7697 52.3473L20.0024 49.7847L17.5281 47.8406L18.5885 45.5431L21.5046 47.5755C21.5046 47.5755 25.1276 45.1012 25.3927 45.0129C25.6578 44.9245 28.0437 42.4502 28.0437 42.4502L28.1321 39.0923L26.0113 37.5017L23.3603 40.3294L19.2954 40.1527L18.4118 36.5297L21.5046 32.023L20.0907 29.5487L17.1746 28.665L15.4073 29.5487L14.1702 32.1113L12.2261 33.5252L10.7239 32.8183L9.50441 30.2556C7.03014 33.1364 5.12142 36.512 3.97266 40.2057C6.27019 47.4871 11.4308 53.5137 18.129 56.9247C19.2424 56.4652 19.914 56.1471 19.914 56.1471L21.7697 52.3473Z" fill="#CCE7D6"/>
<path d="M30.4292 23.8932L24.8621 23.0095L23.2715 25.5722L24.8621 28.1348L25.0388 30.6091L28.4851 31.3513L32.55 27.693L37.3218 26.3675L34.9359 23.9816L30.4292 23.8932Z" fill="#CCE7D6"/>
<path d="M54.3757 33.2601L55.171 36.5297L52.7851 37.8552L51.1945 34.7623L48.8086 35.646L45.274 35.0274L42.8881 38.8272C42.8881 38.8272 47.8366 39.6225 48.1017 39.6225C48.3668 39.6225 48.7203 43.1572 48.7203 43.1572L45.8042 44.571L41.2091 43.6874L39.1767 46.8686L38.6465 51.3752L43.2426 56.0774C43.2426 56.0774 43.3172 56.1 43.3526 56.1176C49.9447 52.6713 55.6659 47.3987 57.9281 40.2057C57.1328 37.6784 56.0017 35.3102 54.5702 33.1541L54.3757 33.2601Z" fill="#CCE7D6"/>
<path d="M35.1648 14.7384C35.1648 17.089 30.9232 24.6355 30.9232 24.6355C30.9232 24.6355 26.6816 17.089 26.6816 14.7384C26.6816 12.3879 28.5727 10.4968 30.9232 10.4968C33.2738 10.4968 35.1648 12.4055 35.1648 14.7384Z" fill="#FDC010"/>
<path d="M33.4705 14.8235C33.4705 15.9882 32.3587 16.9411 30.9999 16.9411C29.6411 16.9411 28.5293 15.9882 28.5293 14.8235C28.5293 13.6588 29.6411 12.7058 30.9999 12.7058C32.3587 12.7058 33.4705 13.6588 33.4705 14.8235Z" fill="white"/>
<path d="M49.3211 37.3602C49.3211 39.7108 45.0795 47.2573 45.0795 47.2573C45.0795 47.2573 40.8379 39.7108 40.8379 37.3602C40.8379 35.0097 42.7289 33.1187 45.0795 33.1187C47.43 33.1187 49.3211 35.0274 49.3211 37.3602Z" fill="#FDC010"/>
<path d="M45.0807 39.8348C46.4472 39.8348 47.555 38.727 47.555 37.3605C47.555 35.994 46.4472 34.8862 45.0807 34.8862C43.7142 34.8862 42.6064 35.994 42.6064 37.3605C42.6064 38.727 43.7142 39.8348 45.0807 39.8348Z" fill="white"/>
<path d="M11.6927 36.701C11.6927 36.701 19.318 32.1465 31.0113 36.1955C42.7046 40.2445 45.0361 47.0875 45.0361 47.0875" stroke="#FDC010" stroke-width="1.02586"/>
<path d="M12.3254 36.1589C12.3254 36.1589 13.2685 30.4585 20.1931 26.3539C27.1177 22.2493 31.4953 23.9673 31.4953 23.9673" stroke="#FDC010" stroke-width="1.02586"/>
<path d="M9.47088 31.7058C7.00029 34.5293 4.17676 40.0352 4.17676 40.8823C4.17676 41.9411 8.76499 52.8823 20.0591 57.4705" stroke="#009258" stroke-width="1.5"/>
<path d="M16.4676 27.64C16.4676 29.9906 12.226 37.5371 12.226 37.5371C12.226 37.5371 7.98438 29.9906 7.98438 27.64C7.98438 25.2895 9.87542 23.3984 12.226 23.3984C14.5765 23.3984 16.4676 25.3072 16.4676 27.64Z" fill="#FDC010"/>
<path d="M14.6995 27.64C14.6995 29.0009 13.5861 30.1143 12.2252 30.1143C10.8644 30.1143 9.75098 29.0009 9.75098 27.64C9.75098 26.2792 10.8644 25.1658 12.2252 25.1658C13.5861 25.1834 14.6995 26.2792 14.6995 27.64Z" fill="white"/>
<path d="M42.6475 57.1176C44.8828 56.0588 49.3533 53.5882 52.8828 49.7058C56.7651 44.4117 56.8828 43 57.8239 40.8823C56.8828 38.7647 54.2945 33.8235 53.9416 33.8235" stroke="#009258" stroke-width="1.5"/>
</svg>
