<?xml version="1.0" encoding="utf-8" ?><svg width="52" height="46" viewBox="0 0 52 46" fill="none" xmlns="http://www.w3.org/2000/svg">
<path d="M40.7659 41.8208C40.7659 43.4021 42.0543 44.7491 43.6941 44.7491C45.2754 44.7491 46.6224 43.4607 46.6224 41.8208C46.6224 40.2396 45.334 38.8926 43.6941 38.8926C42.0543 38.9511 40.7659 40.2396 40.7659 41.8208Z" fill="white" stroke="#FDC010" stroke-width="1.5" stroke-miterlimit="10" stroke-linecap="round" stroke-linejoin="round"/>
<path d="M23.0791 41.8208C23.0791 43.4021 24.3675 44.7491 26.0074 44.7491C27.5886 44.7491 28.9356 43.4607 28.9356 41.8208C28.9356 40.2396 27.6472 38.8926 26.0074 38.8926C24.3675 38.9511 23.0791 40.2396 23.0791 41.8208Z" fill="white" stroke="#FDC010" stroke-width="1.5" stroke-miterlimit="10" stroke-linecap="round" stroke-linejoin="round"/>
<path d="M1 12.186L21.7321 1L42.5229 12.186" stroke="#00B46C" stroke-width="1.5" stroke-miterlimit="10" stroke-linecap="round" stroke-linejoin="round"/>
<path d="M4.33838 36.1977V10.9561H39.1262V20.0923" stroke="#00B46C" stroke-width="1.5" stroke-miterlimit="10" stroke-linecap="round" stroke-linejoin="round"/>
<path d="M5.09961 14.9385H39.1261" stroke="#00B46C" stroke-width="1.5" stroke-miterlimit="10" stroke-linecap="round" stroke-linejoin="round"/>
<path d="M46.5639 41.2936H50.2535V35.2028L45.4511 28.4678H38.8333V41.2936H40.2974" fill="white"/>
<path d="M46.5639 41.2936H50.2535V35.2028L45.4511 28.4678H38.8333V41.2936H40.2974" stroke="#FDC010" stroke-width="1.5" stroke-miterlimit="10" stroke-linecap="round" stroke-linejoin="round"/>
<path d="M24.8111 39.1597H22V22H37.5198C41.0337 22 40.9166 25.3968 40.9166 25.3968V39.1597H31.6633" fill="#E7F5EC"/>
<path d="M22.6693 41.2935H19.8582V24.1338H35.378C38.8919 24.1338 38.7748 27.5306 38.7748 27.5306V41.2935H29.5214" stroke="#FDC010" stroke-width="1.5" stroke-miterlimit="10" stroke-linecap="round" stroke-linejoin="round"/>
<path d="M15.9928 30.0488H9.72632V36.3153H15.9928V30.0488Z" stroke="#00B46C" stroke-width="1.5" stroke-miterlimit="10" stroke-linecap="round" stroke-linejoin="round"/>
<path d="M14.4701 23.7236H8.20361V29.9901H14.4701V23.7236Z" stroke="#00B46C" stroke-width="1.5" stroke-miterlimit="10" stroke-linecap="round" stroke-linejoin="round"/>
</svg>
