<?xml version="1.0" encoding="utf-8" ?><svg width="68" height="49" viewBox="0 0 68 49" fill="none" xmlns="http://www.w3.org/2000/svg">
<path d="M42.6741 39.4661H0V44.2424H42.6741V39.4661Z" fill="#CCE7D6"/>
<path d="M63.2678 33.9851H49.4868V26.8597H60.5273L56.7688 19.8909H42.7529V43.851H48.234C48.3906 43.851 48.4689 43.9293 48.5472 43.9293C49.2519 41.502 51.4444 39.7794 54.0283 39.7794C56.6122 39.7794 58.8047 41.502 59.5094 43.851H63.8159V34.0634L63.7376 33.9068L63.2678 33.9851Z" fill="#CCE7D6"/>
<path d="M34.1933 31.4268H2.08984V1.12427H38.265V27.3551C38.3433 29.6259 36.464 31.4268 34.1933 31.4268Z" stroke="#FDC010" stroke-width="1.5" stroke-miterlimit="10" stroke-linecap="round" stroke-linejoin="round"/>
<path d="M24.9517 13.5741L19.7055 10.3638L15.1641 13.5741V1.12427H24.9517V13.5741Z" stroke="#FDC010" stroke-width="1.5" stroke-miterlimit="10" stroke-linecap="round" stroke-linejoin="round"/>
<path d="M8.27441 24.3796H22.7601" stroke="#FDC010" stroke-width="1.5" stroke-miterlimit="10" stroke-linecap="round" stroke-linejoin="round"/>
<path d="M60.8935 42.1539H66.9227V32.3663L59.0926 17.8022H44.8418V42.1539H50.7927" stroke="#009258" stroke-width="1.5" stroke-miterlimit="10" stroke-linecap="round" stroke-linejoin="round"/>
<path d="M15.6348 42.1541H22.2121" stroke="#009258" stroke-width="1.5" stroke-miterlimit="10" stroke-linecap="round" stroke-linejoin="round"/>
<path d="M44.8411 37.4558H2.16699V42.1539H6.23865" stroke="#009258" stroke-width="1.5" stroke-miterlimit="10" stroke-linecap="round" stroke-linejoin="round"/>
<path d="M33.4102 42.1539H44.8421V16.6277" stroke="#009258" stroke-width="1.5" stroke-miterlimit="10" stroke-linecap="round" stroke-linejoin="round"/>
<path d="M51.4971 43.0936C51.4971 45.6775 53.6112 47.7916 56.1951 47.7916C58.7791 47.7916 60.8932 45.6775 60.8932 43.0936C60.8932 40.5096 58.7791 38.3955 56.1951 38.3955C53.6112 38.3955 51.4971 40.5096 51.4971 43.0936Z" stroke="#009258" stroke-width="1.5" stroke-miterlimit="10" stroke-linecap="round" stroke-linejoin="round"/>
<path d="M6.23926 43.0936C6.23926 45.6775 8.35339 47.7916 10.9373 47.7916C13.5213 47.7916 15.6354 45.6775 15.6354 43.0936C15.6354 40.5096 13.5213 38.3955 10.9373 38.3955C8.35339 38.3955 6.23926 40.5096 6.23926 43.0936Z" stroke="#009258" stroke-width="1.5" stroke-miterlimit="10" stroke-linecap="round" stroke-linejoin="round"/>
<path d="M22.8389 43.0936C22.8389 45.6775 24.953 47.7916 27.5369 47.7916C30.1209 47.7916 32.235 45.6775 32.235 43.0936C32.235 40.5096 30.1209 38.3955 27.5369 38.3955C24.953 38.3955 22.8389 40.5096 22.8389 43.0936Z" stroke="#009258" stroke-width="1.5" stroke-miterlimit="10" stroke-linecap="round" stroke-linejoin="round"/>
<path d="M55.647 24.771H51.4971V32.4445H67.0007" stroke="#009258" stroke-width="1.5" stroke-miterlimit="10" stroke-linecap="round" stroke-linejoin="round"/>
</svg>
